HIERARCHY
ROOT Hips
{
	OFFSET -0.001795 -0.223333 0.028219
	CHANNELS 6 Xposition Yposition Zposition Zrotation Yrotation Xrotation 
	JOINT LeftUpLeg
	{
		OFFSET 0.069520 -0.091406 -0.006815
		CHANNELS 3 Zrotation Yrotation Xrotation
		JOINT LeftLeg
		{
			OFFSET 0.034277 -0.375199 -0.004496
			CHANNELS 3 Zrotation Yrotation Xrotation
			JOINT LeftFoot
			{
				OFFSET -0.013596 -0.397961 -0.043693
				CHANNELS 3 Zrotation Yrotation Xrotation
				JOINT LeftToe
				{
					OFFSET 0.026358 -0.055791 0.119288
					CHANNELS 3 Zrotation Yrotation Xrotation
					End Site
					{
						OFFSET 0.000000 0.000000 0.000000
					}
				}
			}
		}
	}
	JOINT RightUpLeg
	{
		OFFSET -0.067670 -0.090522 -0.004320
		CHANNELS 3 Zrotation Yrotation Xrotation
		JOINT RightLeg
		{
			OFFSET -0.038290 -0.382569 -0.008850
			CHANNELS 3 Zrotation Yrotation Xrotation
			JOINT RightFoot
			{
				OFFSET 0.015774 -0.398415 -0.042312
				CHANNELS 3 Zrotation Yrotation Xrotation
				JOINT RightToe
				{
					OFFSET -0.025372 -0.048144 0.123348
					CHANNELS 3 Zrotation Yrotation Xrotation
					End Site
					{
						OFFSET 0.000000 0.000000 0.000000
					}
				}
			}
		}
	}
	JOINT Spine
	{
		OFFSET -0.002533 0.108963 -0.026696
		CHANNELS 3 Zrotation Yrotation Xrotation
		JOINT Spine1
		{
			OFFSET 0.005487 0.135180 0.001092
			CHANNELS 3 Zrotation Yrotation Xrotation
			JOINT Spine2
			{
				OFFSET 0.001457 0.052922 0.025425
				CHANNELS 3 Zrotation Yrotation Xrotation
				JOINT Neck
				{
					OFFSET -0.002778 0.213870 -0.042857
					CHANNELS 3 Zrotation Yrotation Xrotation
					JOINT Head
					{
						OFFSET 0.005152 0.064970 0.051349
						CHANNELS 3 Zrotation Yrotation Xrotation
						End Site
						{
							OFFSET 0.000000 0.000000 0.000000
						}
					}
				}
				JOINT LeftShoulder
				{
					OFFSET 0.078845 0.121749 -0.034090
					CHANNELS 3 Zrotation Yrotation Xrotation
					JOINT LeftArm
					{
						OFFSET 0.090977 0.030469 -0.008868
						CHANNELS 3 Zrotation Yrotation Xrotation
						JOINT LeftForeArm
						{
							OFFSET 0.259612 -0.012772 -0.027456
							CHANNELS 3 Zrotation Yrotation Xrotation
							JOINT LeftHand
							{
								OFFSET 0.249234 0.008986 -0.001171
								CHANNELS 3 Zrotation Yrotation Xrotation
								End Site
								{
									OFFSET 0.000000 0.000000 0.000000
								}
							}
						}
					}
				}
				JOINT RightShoulder
				{
					OFFSET -0.081759 0.118833 -0.038615
					CHANNELS 3 Zrotation Yrotation Xrotation
					JOINT RightArm
					{
						OFFSET -0.096012 0.032551 -0.009143
						CHANNELS 3 Zrotation Yrotation Xrotation
						JOINT RightForeArm
						{
							OFFSET -0.253742 -0.013329 -0.021401
							CHANNELS 3 Zrotation Yrotation Xrotation
							JOINT RightHand
							{
								OFFSET -0.255298 0.007772 -0.005559
								CHANNELS 3 Zrotation Yrotation Xrotation
								End Site
								{
									OFFSET 0.000000 0.000000 0.000000
								}
							}
						}
					}
				}
			}
		}
	}
}
MOTION
Frames: 13
Frame Time: 0.050000
-0.053205 0.934494 -0.017593 1.632395 40.046581 6.383041 5.257736 -0.683648 -4.209066 2.167940 -0.002527 -4.043949 -6.467819 -3.531246 9.159728 0.000000 0.000000 0.000000 -2.608763 -0.061759 -1.412833 0.011836 -0.356917 -7.593077 -1.176478 -2.461445 6.292096 0.000000 0.000000 0.000000 4.188163 -0.015700 -3.458093 0.548295 -0.606684 0.777200 -3.167817 8.624589 0.517769 -1.626046 4.621662 -16.375380 0.000000 0.000000 0.000000 -2.024984 -12.564715 2.305648 2.067602 -30.167610 -3.096414 33.686305 -23.234421 -9.314830 0.000000 0.000000 0.000000 23.954314 -2.408997 5.652692 49.334621 7.948309 -3.361732 2.966001 31.673498 3.506287 0.000000 0.000000 0.000000 
-0.054751 0.935203 -0.020747 1.486757 39.361516 6.348853 5.316832 -0.683058 -4.197146 2.081815 0.004561 -4.327959 -6.249471 -2.946651 9.454048 0.000000 0.000000 0.000000 -2.634040 -0.030960 -1.723670 0.059320 -0.373402 -7.755223 -0.905620 -1.828075 6.790618 0.000000 0.000000 0.000000 3.964122 -0.014473 -3.227605 0.605806 -0.618967 0.751853 -2.980110 8.444588 0.430691 -1.431619 4.518103 -16.619201 0.000000 0.000000 0.000000 -1.682255 -12.173554 2.354884 2.259029 -31.263893 -3.314797 35.067936 -23.207852 -9.710236 0.000000 0.000000 0.000000 23.098972 -1.810337 5.641867 49.998760 7.997409 -3.150136 2.586637 31.220819 3.312158 0.000000 0.000000 0.000000 
-0.055942 0.935729 -0.023861 1.423837 38.635848 6.349912 5.283923 -0.669582 -4.099763 2.007180 0.012197 -4.686473 -6.003755 -2.362598 9.713916 0.000000 0.000000 0.000000 -2.761969 -0.016142 -1.942277 0.145352 -0.401952 -8.026600 -0.601438 -1.158757 7.256922 0.000000 0.000000 0.000000 3.943642 -0.018817 -2.989032 0.583049 -0.502196 0.219737 -2.983306 8.539886 1.031618 -1.324512 4.521154 -16.888382 0.000000 0.000000 0.000000 -1.352604 -11.740727 2.358237 1.916516 -32.120773 -3.394451 37.260841 -23.327530 -10.507699 0.000000 0.000000 0.000000 22.620326 -1.780753 5.507764 50.750488 8.369067 -2.919438 2.648607 31.219202 3.351887 0.000000 0.000000 0.000000 
-0.056932 0.936156 -0.026579 1.488481 37.893365 6.374054 5.294585 -0.659017 -3.979673 1.671197 0.018939 -4.926987 -5.735230 -1.785997 9.946944 0.000000 0.000000 0.000000 -2.912561 0.002145 -2.251481 0.089178 -0.391068 -7.974170 -0.307360 -0.553876 7.489348 0.000000 0.000000 0.000000 3.782980 -0.025135 -2.619180 0.786671 -0.550430 0.016572 -3.144835 8.791900 1.083640 -1.213635 4.418575 -16.631278 0.000000 0.000000 0.000000 -1.522441 -11.204754 2.152043 1.154852 -31.976801 -3.146620 40.058566 -25.087855 -12.169956 0.000000 0.000000 0.000000 21.934977 -1.831255 5.231147 51.541346 8.440829 -2.678296 2.630563 31.643541 3.430825 0.000000 0.000000 0.000000 
-0.057906 0.936388 -0.028819 1.546005 37.095003 6.367216 5.162614 -0.634438 -3.845380 1.626773 0.024175 -5.076009 -5.412364 -1.212409 10.074854 0.000000 0.000000 0.000000 -2.962938 0.014522 -2.359970 -0.099644 -0.387765 -8.208264 0.021378 0.107733 7.757372 0.000000 0.000000 0.000000 3.750622 -0.022193 -2.592027 0.710421 -0.502595 -0.009366 -3.158660 8.960555 1.424256 -1.054708 4.268379 -16.193856 0.000000 0.000000 0.000000 -1.748716 -10.480918 1.883258 -0.241179 -31.713656 -2.724382 43.077234 -27.223095 -14.217176 0.000000 0.000000 0.000000 21.815983 -1.716352 5.209235 52.063157 9.101178 -2.358609 2.256072 31.908112 3.381035 0.000000 0.000000 0.000000 
-0.059026 0.936512 -0.030714 1.470096 36.704316 6.231732 5.146407 -0.621832 -3.657962 1.688986 0.027768 -5.349069 -5.274627 -0.915877 10.202763 0.000000 0.000000 0.000000 -2.865015 0.034124 -2.469989 -0.241549 -0.372967 -8.208844 0.179518 0.420059 7.902313 0.000000 0.000000 0.000000 3.642268 -0.024364 -2.383845 0.872448 -0.513067 -0.354462 -3.267514 9.120990 1.857158 -0.877889 4.097484 -15.550513 0.000000 0.000000 0.000000 -1.976073 -9.903280 1.629545 -1.747850 -31.234275 -2.278782 45.548814 -29.504360 -16.337830 0.000000 0.000000 0.000000 21.313185 -1.856161 4.975864 52.702173 9.195693 -2.166216 2.241010 32.537145 3.499256 0.000000 0.000000 0.000000 
-0.060357 0.936781 -0.032526 1.446599 36.245178 6.135225 5.186566 -0.623796 -3.769288 1.588132 0.028923 -5.089667 -5.069427 -0.585842 10.248066 0.000000 0.000000 0.000000 -2.934187 0.048108 -2.706347 -0.140881 -0.368597 -8.019453 0.373969 0.795192 8.014181 0.000000 0.000000 0.000000 3.706504 -0.032574 -2.165704 1.005554 -0.553264 -0.447286 -3.494295 9.319841 2.004762 -0.441314 3.799426 -15.111849 0.000000 0.000000 0.000000 -2.119011 -9.741230 1.533887 -3.459365 -30.423112 -1.766111 47.628342 -31.602746 -18.350112 0.000000 0.000000 0.000000 21.229082 -2.070399 4.805412 52.796941 9.086273 -2.177825 2.405501 33.633133 3.758601 0.000000 0.000000 0.000000 
-0.061749 0.937016 -0.034386 1.347146 36.457166 5.998656 5.436489 -0.654554 -3.991191 1.336995 0.026960 -4.896346 -5.183444 -0.693400 10.333257 0.000000 0.000000 0.000000 -2.886515 0.066233 -2.980057 -0.043976 -0.347831 -7.592818 0.276331 0.602855 8.028751 0.000000 0.000000 0.000000 3.649821 -0.039817 -1.935486 1.142826 -0.609424 -0.488873 -3.694589 9.129759 2.096349 -0.292940 3.600216 -14.428206 0.000000 0.000000 0.000000 -2.241494 -9.551434 1.437027 -4.834843 -30.294829 -1.431943 48.448655 -33.401954 -19.711308 0.000000 0.000000 0.000000 21.083848 -2.419069 4.502368 53.127469 8.785818 -2.213322 2.543080 34.513462 3.977565 0.000000 0.000000 0.000000 
-0.063272 0.937422 -0.036334 1.354750 36.487316 5.855608 5.143433 -0.632813 -4.150045 1.851744 0.022232 -4.628991 -5.264993 -0.735877 10.421965 0.000000 0.000000 0.000000 -2.967728 0.072710 -3.240185 0.098804 -0.331293 -7.119017 0.260527 0.567130 8.057690 0.000000 0.000000 0.000000 3.631263 -0.047717 -1.699686 1.366721 -0.695718 -0.574373 -4.052932 9.109407 2.362789 0.274341 3.239648 -14.067044 0.000000 0.000000 0.000000 -2.594087 -9.632342 1.328848 -6.429625 -30.321446 -1.069933 49.155244 -35.626807 -21.280909 0.000000 0.000000 0.000000 21.018917 -2.828921 4.228445 53.409081 8.287186 -2.378609 2.429792 35.789554 4.221329 0.000000 0.000000 0.000000 
-0.064866 0.937538 -0.038124 1.385190 36.939507 5.843822 5.219307 -0.663034 -4.667651 1.756466 0.014139 -4.101215 -5.482149 -1.038776 10.436426 0.000000 0.000000 0.000000 -3.069356 0.068243 -3.443602 0.308371 -0.339061 -6.855143 0.074771 0.205344 8.087807 0.000000 0.000000 0.000000 3.528918 -0.052401 -1.530508 1.641907 -0.851765 -0.422234 -4.257175 8.807334 2.596798 0.783087 2.830068 -13.386493 0.000000 0.000000 0.000000 -3.109163 -9.901050 1.229527 -8.095415 -30.053297 -0.670233 50.274307 -38.041531 -23.149185 0.000000 0.000000 0.000000 20.954097 -3.135132 3.988401 53.842021 7.772366 -2.534346 1.868218 36.789459 4.266034 0.000000 0.000000 0.000000 
-0.066664 0.937345 -0.039892 1.285454 37.144966 5.766561 5.085515 -0.672631 -5.111000 2.228119 -0.001600 -3.643299 -5.550661 -1.210119 10.331116 0.000000 0.000000 0.000000 -3.228635 0.058138 -3.589124 0.825209 -0.398995 -6.804522 0.022099 0.098588 8.173011 0.000000 0.000000 0.000000 3.573643 -0.058343 -1.430921 1.756390 -0.990559 0.049912 -4.558780 8.575039 2.591657 1.480647 2.387850 -13.234909 0.000000 0.000000 0.000000 -3.759548 -10.026724 1.053001 -10.433331 -29.824901 -0.134100 53.142024 -41.818134 -26.820574 0.000000 0.000000 0.000000 20.805438 -3.455093 3.687891 54.387571 6.982339 -2.780908 1.366866 37.699909 4.312105 0.000000 0.000000 0.000000 
-0.068562 0.937146 -0.041628 1.158190 37.316263 5.867609 5.059084 -0.696932 -5.625169 2.565672 -0.013617 -3.432637 -5.619855 -1.305948 10.329982 0.000000 0.000000 0.000000 -3.430020 0.055151 -3.936129 1.465719 -0.479642 -6.793422 -0.014637 0.025954 8.326655 0.000000 0.000000 0.000000 3.733768 -0.085518 -1.047108 1.586202 -0.959585 0.296007 -4.707084 8.052029 2.848748 2.431609 1.670890 -12.604678 0.000000 0.000000 0.000000 -5.438465 -10.687139 0.713935 -12.226988 -28.752098 0.345291 58.401347 -46.598731 -32.557202 0.000000 0.000000 0.000000 20.886700 -3.796374 3.357638 54.953219 5.985463 -3.167695 0.752943 38.938835 4.357773 0.000000 0.000000 0.000000 
-0.070560 0.937026 -0.043742 1.201315 36.891475 6.150092 4.862693 -0.725740 -6.441982 2.860570 -0.045405 -2.659471 -5.366927 -1.000966 10.238566 0.000000 0.000000 0.000000 -3.720439 0.057764 -4.403853 1.918777 -0.542265 -6.924937 0.187176 0.405768 8.559855 0.000000 0.000000 0.000000 3.654358 -0.105606 -0.653332 1.631655 -1.021707 0.528970 -5.166534 7.930576 3.092481 3.234366 1.245499 -12.950198 0.000000 0.000000 0.000000 -6.609501 -10.853867 0.413910 -15.180795 -28.512939 0.939169 64.411584 -51.955747 -40.037126 0.000000 0.000000 0.000000 21.021839 -4.304476 2.971797 55.539330 5.269647 -3.447017 0.328404 40.007962 4.446204 0.000000 0.000000 0.000000 
